#Comment line ignore any data following # character 
#Hierarchical Translation and Rotation (.htr) file 
[Header]	
#Header keywords are followed by a single value 
FileType HTR		#Single word string
DataType HTRS		#Translation followed by rotation and scale data
FileVersion 1		#integer
NumSegments 84		#integer
NumFrames 2		#integer
DataFrameRate 30		#integer, data frame rate in this file
EulerRotationOrder ZYX
CalibrationUnits mm
RotationUnits Degrees
GlobalAxisofGravity Y
BoneLengthAxis Y
ScaleFactor 1.00
[SegmentNames&Hierarchy]
#CHILD	PARENT
MASTER GLOBAL
root MASTER
chest root
L_mid_tent01 root
R_mid_tent01 root
spine01 root
Bip01_Neck chest
L_humerus chest
R_humerus chest
weapon_bone chest
Bip01_Head Bip01_Neck
eye_left_bone Bip01_Head
eye_right_bone Bip01_Head
L_forearm L_humerus
L_front_hand L_forearm
L_weapon_bone L_forearm
L_front_hand01_01 L_front_hand
L_front_hand02_01 L_front_hand
L_front_hand03_01 L_front_hand
L_front_hand01_02 L_front_hand01_01
L_front_hand02_02 L_front_hand02_01
L_front_hand03_02 L_front_hand03_01
R_forearm R_humerus
R_front_hand R_forearm
R_weapon_bone R_forearm
R_front_hand01_01 R_front_hand
R_front_hand02_01 R_front_hand
R_front_hand03_01 R_front_hand
R_front_hand01_02 R_front_hand01_01
R_front_hand02_02 R_front_hand02_01
R_front_hand03_02 R_front_hand03_01
null_rope01_connect L_mid_tent01
Rope1_Seg01 null_rope01_connect
Rope1_Seg02 Rope1_Seg01
Rope1_Seg03 Rope1_Seg02
Rope1_Seg04 Rope1_Seg03
Rope1_Seg05 Rope1_Seg04
Rope1_Seg06 Rope1_Seg05
Rope1_Seg07 Rope1_Seg06
Rope1_Seg09 Rope1_Seg07
L_mid_hand01 Rope1_Seg09
L_mid_hand02 Rope1_Seg09
L_mid_hand03 Rope1_Seg09
null_rope02_connect R_mid_tent01
Rope2_Seg01 null_rope02_connect
Rope2_Seg02 Rope2_Seg01
Rope2_Seg03 Rope2_Seg02
Rope2_Seg04 Rope2_Seg03
Rope2_Seg05 Rope2_Seg04
Rope2_Seg06 Rope2_Seg05
Rope2_Seg07 Rope2_Seg06
Rope2_Seg09 Rope2_Seg07
R_mid_hand01 Rope2_Seg09
R_mid_hand02 Rope2_Seg09
R_mid_hand03 Rope2_Seg09
spine02 spine01
spine03 spine02
pelvis spine03
null_rope03_connect pelvis
null_rope04_connect pelvis
Rope3_Seg01 null_rope03_connect
Rope3_Seg02 Rope3_Seg01
Rope3_Seg03 Rope3_Seg02
Rope3_Seg04 Rope3_Seg03
Rope3_Seg05 Rope3_Seg04
Rope3_Seg06 Rope3_Seg05
Rope3_Seg07 Rope3_Seg06
Rope3_Seg08 Rope3_Seg07
Rope3_Seg09 Rope3_Seg08
R_rear_hand01 Rope3_Seg09
R_rear_hand02 Rope3_Seg09
R_rear_hand03 Rope3_Seg09
Rope4_Seg01 null_rope04_connect
Rope4_Seg02 Rope4_Seg01
Rope4_Seg03 Rope4_Seg02
Rope4_Seg04 Rope4_Seg03
Rope4_Seg05 Rope4_Seg04
Rope4_Seg06 Rope4_Seg05
Rope4_Seg07 Rope4_Seg06
Rope4_Seg08 Rope4_Seg07
Rope4_Seg09 Rope4_Seg08
L_rear_hand01 Rope4_Seg09
L_rear_hand02 Rope4_Seg09
L_rear_hand03 Rope4_Seg09
[BasePosition]
#SegmentName Tx, Ty, Tz, Rx, Ry, Rz, BoneLength
MASTER 0.000000 0.000000 0.000000 -90.000000 0.000000 0.000000 10.000000 
root 0.000000 0.000000 0.000000 0.000000 0.000000 0.000000 10.000000 
chest 0.000000 0.000000 0.000000 0.000000 0.000000 0.000000 10.000000 
L_mid_tent01 0.000000 0.000000 0.000000 0.000000 0.000000 0.000000 10.000000 
R_mid_tent01 0.000000 0.000000 0.000000 0.000000 0.000000 0.000000 10.000000 
spine01 0.000000 0.000000 0.000000 0.000000 0.000000 0.000000 10.000000 
Bip01_Neck 0.000000 0.000000 0.000000 0.000000 0.000000 0.000000 10.000000 
L_humerus 0.000000 0.000000 0.000000 0.000000 0.000000 0.000000 10.000000 
R_humerus 0.000000 0.000000 0.000000 0.000000 0.000000 0.000000 10.000000 
weapon_bone 0.000000 0.000000 0.000000 0.000000 0.000000 0.000000 10.000000 
Bip01_Head 0.000000 0.000000 0.000000 0.000000 0.000000 0.000000 10.000000 
eye_left_bone 0.000000 0.000000 0.000000 0.000000 0.000000 0.000000 10.000000 
eye_right_bone 0.000000 0.000000 0.000000 0.000000 0.000000 0.000000 10.000000 
L_forearm 0.000000 0.000000 0.000000 0.000000 0.000000 0.000000 10.000000 
L_front_hand 0.000000 0.000000 0.000000 0.000000 0.000000 0.000000 10.000000 
L_weapon_bone 0.000000 0.000000 0.000000 0.000000 0.000000 0.000000 10.000000 
L_front_hand01_01 0.000000 0.000000 0.000000 0.000000 0.000000 0.000000 10.000000 
L_front_hand02_01 0.000000 0.000000 0.000000 0.000000 0.000000 0.000000 10.000000 
L_front_hand03_01 0.000000 0.000000 0.000000 0.000000 0.000000 0.000000 10.000000 
L_front_hand01_02 0.000000 0.000000 0.000000 0.000000 0.000000 0.000000 10.000000 
L_front_hand02_02 0.000000 0.000000 0.000000 0.000000 0.000000 0.000000 10.000000 
L_front_hand03_02 0.000000 0.000000 0.000000 0.000000 0.000000 0.000000 10.000000 
R_forearm 0.000000 0.000000 0.000000 0.000000 0.000000 0.000000 10.000000 
R_front_hand 0.000000 0.000000 0.000000 0.000000 0.000000 0.000000 10.000000 
R_weapon_bone 0.000000 0.000000 0.000000 0.000000 0.000000 0.000000 10.000000 
R_front_hand01_01 0.000000 0.000000 0.000000 0.000000 0.000000 0.000000 10.000000 
R_front_hand02_01 0.000000 0.000000 0.000000 0.000000 0.000000 0.000000 10.000000 
R_front_hand03_01 0.000000 0.000000 0.000000 0.000000 0.000000 0.000000 10.000000 
R_front_hand01_02 0.000000 0.000000 0.000000 0.000000 0.000000 0.000000 10.000000 
R_front_hand02_02 0.000000 0.000000 0.000000 0.000000 0.000000 0.000000 10.000000 
R_front_hand03_02 0.000000 0.000000 0.000000 0.000000 0.000000 0.000000 10.000000 
null_rope01_connect 0.000000 0.000000 0.000000 0.000000 0.000000 0.000000 10.000000 
Rope1_Seg01 0.000000 0.000000 0.000000 0.000000 0.000000 0.000000 10.000000 
Rope1_Seg02 0.000000 0.000000 0.000000 0.000000 0.000000 0.000000 10.000000 
Rope1_Seg03 0.000000 0.000000 0.000000 0.000000 0.000000 0.000000 10.000000 
Rope1_Seg04 0.000000 0.000000 0.000000 0.000000 0.000000 0.000000 10.000000 
Rope1_Seg05 0.000000 0.000000 0.000000 0.000000 0.000000 0.000000 10.000000 
Rope1_Seg06 0.000000 0.000000 0.000000 0.000000 0.000000 0.000000 10.000000 
Rope1_Seg07 0.000000 0.000000 0.000000 0.000000 0.000000 0.000000 10.000000 
Rope1_Seg09 0.000000 0.000000 0.000000 0.000000 0.000000 0.000000 10.000000 
L_mid_hand01 0.000000 0.000000 0.000000 0.000000 0.000000 0.000000 10.000000 
L_mid_hand02 0.000000 0.000000 0.000000 0.000000 0.000000 0.000000 10.000000 
L_mid_hand03 0.000000 0.000000 0.000000 0.000000 0.000000 0.000000 10.000000 
null_rope02_connect 0.000000 0.000000 0.000000 0.000000 0.000000 0.000000 10.000000 
Rope2_Seg01 0.000000 0.000000 0.000000 0.000000 0.000000 0.000000 10.000000 
Rope2_Seg02 0.000000 0.000000 0.000000 0.000000 0.000000 0.000000 10.000000 
Rope2_Seg03 0.000000 0.000000 0.000000 0.000000 0.000000 0.000000 10.000000 
Rope2_Seg04 0.000000 0.000000 0.000000 0.000000 0.000000 0.000000 10.000000 
Rope2_Seg05 0.000000 0.000000 0.000000 0.000000 0.000000 0.000000 10.000000 
Rope2_Seg06 0.000000 0.000000 0.000000 0.000000 0.000000 0.000000 10.000000 
Rope2_Seg07 0.000000 0.000000 0.000000 0.000000 0.000000 0.000000 10.000000 
Rope2_Seg09 0.000000 0.000000 0.000000 0.000000 0.000000 0.000000 10.000000 
R_mid_hand01 0.000000 0.000000 0.000000 0.000000 0.000000 0.000000 10.000000 
R_mid_hand02 0.000000 0.000000 0.000000 0.000000 0.000000 0.000000 10.000000 
R_mid_hand03 0.000000 0.000000 0.000000 0.000000 0.000000 0.000000 10.000000 
spine02 0.000000 0.000000 0.000000 0.000000 0.000000 0.000000 10.000000 
spine03 0.000000 0.000000 0.000000 0.000000 0.000000 0.000000 10.000000 
pelvis 0.000000 0.000000 0.000000 0.000000 0.000000 0.000000 10.000000 
null_rope03_connect 0.000000 0.000000 0.000000 0.000000 0.000000 0.000000 10.000000 
null_rope04_connect 0.000000 0.000000 0.000000 0.000000 0.000000 0.000000 10.000000 
Rope3_Seg01 0.000000 0.000000 0.000000 0.000000 0.000000 0.000000 10.000000 
Rope3_Seg02 0.000000 0.000000 0.000000 0.000000 0.000000 0.000000 10.000000 
Rope3_Seg03 0.000000 0.000000 0.000000 0.000000 0.000000 0.000000 10.000000 
Rope3_Seg04 0.000000 0.000000 0.000000 0.000000 0.000000 0.000000 10.000000 
Rope3_Seg05 0.000000 0.000000 0.000000 0.000000 0.000000 0.000000 10.000000 
Rope3_Seg06 0.000000 0.000000 0.000000 0.000000 0.000000 0.000000 10.000000 
Rope3_Seg07 0.000000 0.000000 0.000000 0.000000 0.000000 0.000000 10.000000 
Rope3_Seg08 0.000000 0.000000 0.000000 0.000000 0.000000 0.000000 10.000000 
Rope3_Seg09 0.000000 0.000000 0.000000 0.000000 0.000000 0.000000 10.000000 
R_rear_hand01 0.000000 0.000000 0.000000 0.000000 0.000000 0.000000 10.000000 
R_rear_hand02 0.000000 0.000000 0.000000 0.000000 0.000000 0.000000 10.000000 
R_rear_hand03 0.000000 0.000000 0.000000 0.000000 0.000000 0.000000 10.000000 
Rope4_Seg01 0.000000 0.000000 0.000000 0.000000 0.000000 0.000000 10.000000 
Rope4_Seg02 0.000000 0.000000 0.000000 0.000000 0.000000 0.000000 10.000000 
Rope4_Seg03 0.000000 0.000000 0.000000 0.000000 0.000000 0.000000 10.000000 
Rope4_Seg04 0.000000 0.000000 0.000000 0.000000 0.000000 0.000000 10.000000 
Rope4_Seg05 0.000000 0.000000 0.000000 0.000000 0.000000 0.000000 10.000000 
Rope4_Seg06 0.000000 0.000000 0.000000 0.000000 0.000000 0.000000 10.000000 
Rope4_Seg07 0.000000 0.000000 0.000000 0.000000 0.000000 0.000000 10.000000 
Rope4_Seg08 0.000000 0.000000 0.000000 0.000000 0.000000 0.000000 10.000000 
Rope4_Seg09 0.000000 0.000000 0.000000 0.000000 0.000000 0.000000 10.000000 
L_rear_hand01 0.000000 0.000000 0.000000 0.000000 0.000000 0.000000 10.000000 
L_rear_hand02 0.000000 0.000000 0.000000 0.000000 0.000000 0.000000 10.000000 
L_rear_hand03 0.000000 0.000000 0.000000 0.000000 0.000000 0.000000 10.000000 
#Beginning of Data. Separated by tabs
#Fr	Tx	Ty	Tz	Rx	Ry	Rz	SF
[MASTER]
17 0.000005 62.822109 0.000000 0.001660 0.001660 0.001660 62.822113
18 0.000005 62.822109 0.000000 0.001660 0.001660 0.001660 62.822113
[root]
17 -16.502295 -62.822117 1500.000000 -58.575893 -24.032429 -97.034698 1501.405640
18 -16.502295 -62.822117 1500.000000 -61.061680 -24.576412 -96.254890 1501.405640
[chest]
17 -84.512650 -34.090519 0.000000 13.465229 -21.288996 169.572418 91.129311
18 -84.512650 -34.090519 0.000000 12.724459 -22.534950 169.853470 91.129311
[L_mid_tent01]
17 27.299532 22.177486 -249.917984 168.296478 87.593201 -126.877266 252.380859
18 27.299528 22.177490 -249.917984 166.727737 88.346611 -126.048073 252.380859
[R_mid_tent01]
17 23.228794 24.509907 226.238495 -56.600250 -51.105492 -33.600334 228.744751
18 23.228794 24.509907 226.238495 -57.470474 -51.801353 -33.089699 228.744751
[spine01]
17 -0.361383 -0.195265 0.000000 -0.338067 0.333341 11.310128 0.410763
18 -0.361383 -0.195265 0.000000 -0.383694 0.327463 11.185788 0.410763
[Bip01_Neck]
17 165.484543 71.581718 0.000119 175.896118 1.177290 24.871183 180.302734
18 165.484543 71.581718 0.000119 175.896118 1.177290 24.871183 180.302734
[L_humerus]
17 -13.983130 -135.272980 -120.471481 118.296677 81.079002 -150.495483 181.680161
18 -13.983130 -135.272980 -120.471481 94.857658 77.188545 -172.910995 181.680161
[R_humerus]
17 -13.983309 -135.273102 125.287651 157.511993 -71.029190 -57.366451 184.909012
18 -13.983309 -135.273102 125.287651 130.806595 -65.791206 -29.861307 184.909012
[weapon_bone]
17 235.964890 -300.705902 0.000000 0.000000 -89.951546 -128.212341 382.234833
18 235.964890 -300.705902 0.000000 0.000000 -89.951546 -128.212341 382.234833
[Bip01_Head]
17 261.355835 108.959480 -2.864219 27.184383 5.843215 -62.453442 283.173523
18 261.355835 108.959488 -2.864218 27.754396 5.844552 -62.454884 283.173523
[eye_left_bone]
17 -24.626970 125.451866 -64.772606 0.000000 -90.000000 -99.840431 143.318359
18 -24.626970 125.451866 -64.772606 0.000000 -90.000000 -99.840431 143.318359
[eye_right_bone]
17 -24.626970 125.451866 64.327362 0.000000 -89.960434 80.159386 143.117676
18 -24.626970 125.451866 64.327362 0.000000 -89.960434 80.159386 143.117676
[L_forearm]
17 322.776093 0.000000 -0.000119 0.000183 0.002340 -81.045219 322.776093
18 322.776093 0.000000 -0.000119 0.000183 0.002340 -81.045212 322.776093
[L_front_hand]
17 241.149185 -0.042021 -3.300071 -179.069244 -2.065691 -15.620520 241.171753
18 241.149185 -0.042021 -3.300071 -179.003845 -2.035950 -17.433105 241.171753
[L_weapon_bone]
17 156.183838 0.000000 0.000000 0.001726 0.001590 4.701383 156.183838
18 156.183838 0.000000 0.000000 0.001691 0.001627 2.207559 156.183838
[L_front_hand01_01]
17 86.095154 20.947098 -0.655860 -0.008174 -0.597899 38.539364 88.609184
18 86.095154 20.947098 -0.655860 -0.071911 -0.594408 44.779312 88.609184
[L_front_hand02_01]
17 86.935165 -11.437475 24.513514 123.169418 -34.211037 -20.528364 91.046425
18 86.935165 -11.437475 24.513514 125.815979 -39.359482 -24.940075 91.046425
[L_front_hand03_01]
17 86.637497 -14.123976 -20.424902 -124.313568 32.704075 -22.912638 90.126129
18 86.637497 -14.123976 -20.424902 -126.880516 37.780258 -27.355606 90.126129
[L_front_hand01_02]
17 71.020905 -0.000179 0.000030 0.000396 0.002314 -70.598190 71.020905
18 71.020905 -0.000179 0.000030 0.000267 0.002332 -76.930534 71.020905
[L_front_hand02_02]
17 71.020927 -0.000119 0.000060 0.000396 0.002314 -70.598190 71.020927
18 71.020927 -0.000119 0.000060 0.000267 0.002332 -76.930534 71.020927
[L_front_hand03_02]
17 71.020905 -0.000060 0.000060 0.000396 0.002314 -70.598190 71.020905
18 71.020905 -0.000060 0.000060 0.000267 0.002332 -76.930534 71.020905
[R_forearm]
17 322.776428 -0.000060 0.000030 0.179400 -0.112389 -59.137901 322.776428
18 322.776428 -0.000060 0.000030 0.163911 -0.133880 -50.774147 322.776428
[R_front_hand]
17 238.847015 -0.006795 2.210259 -1.693618 0.341272 -67.371620 238.857239
18 238.847015 -0.006795 2.210259 -1.600601 0.648818 -56.647820 238.857239
[R_weapon_bone]
17 155.664093 0.002503 -0.000030 0.003255 0.001719 -109.286621 155.664078
18 155.664093 0.002503 -0.000030 0.003337 0.001554 -103.536110 155.664078
[R_front_hand01_01]
17 87.624611 14.231146 22.918642 -123.226585 -34.335049 20.735765 91.683487
18 87.624611 14.231146 22.918642 -125.886086 -39.477337 25.154869 91.683487
[R_front_hand02_01]
17 89.356956 14.367283 -19.491137 124.497154 33.076843 23.467176 92.579636
18 89.356956 14.367283 -19.491137 127.120163 38.139927 27.963524 92.579636
[R_front_hand03_01]
17 87.286232 -22.307278 -0.143439 -0.127214 -0.436597 -38.923027 90.091743
18 87.286232 -22.307278 -0.143439 -0.074726 -0.447079 -45.165535 90.091743
[R_front_hand01_02]
17 71.020905 0.000060 0.000119 0.002314 0.000396 70.596199 71.020905
18 71.020905 0.000060 0.000119 0.002332 0.000267 76.928459 71.020905
[R_front_hand02_02]
17 71.020844 -0.000030 -0.000119 0.002314 0.000396 70.596199 71.020836
18 71.020844 -0.000030 -0.000119 0.002332 0.000267 76.928459 71.020836
[R_front_hand03_02]
17 71.020905 0.000000 0.000030 0.002314 0.000396 70.596199 71.020905
18 71.020905 0.000000 0.000030 0.002332 0.000267 76.928459 71.020905
[null_rope01_connect]
17 328.732483 0.000000 -0.000238 -125.992645 -20.243618 160.652939 328.732483
18 328.732483 0.000000 -0.000238 -128.519272 -20.082542 163.406952 328.732483
[Rope1_Seg01]
17 0.000000 0.000000 0.000000 104.166595 -41.643818 174.450714 0.000000
18 0.000000 0.000000 0.000000 106.208984 -40.904411 171.334778 0.000000
[Rope1_Seg02]
17 139.999863 -0.000179 0.000000 0.282180 -9.502016 -5.224539 139.999863
18 139.999863 -0.000179 0.000000 0.201423 -12.560314 -7.603821 139.999863
[Rope1_Seg03]
17 139.999924 0.000060 -0.000060 0.456962 -22.048422 -12.927604 139.999924
18 139.999924 0.000060 -0.000060 0.683315 -25.219805 -17.350634 139.999924
[Rope1_Seg04]
17 139.999924 -0.000060 -0.000119 3.000021 -36.187840 -31.029556 139.999924
18 139.999924 -0.000060 -0.000119 0.844051 -28.153250 -25.198391 139.999924
[Rope1_Seg05]
17 139.999832 0.000119 -0.000060 -2.569943 -17.698578 -10.347822 139.999832
18 139.999832 0.000119 -0.000060 -1.814401 -12.612483 -5.652576 139.999832
[Rope1_Seg06]
17 139.999954 0.000119 -0.000060 -1.646861 -8.104984 1.571254 139.999954
18 139.999954 0.000119 -0.000060 -1.141279 -6.534810 1.622413 139.999954
[Rope1_Seg07]
17 139.999985 0.000060 0.000000 -1.637993 -5.079190 -0.648539 139.999985
18 139.999985 0.000060 0.000000 -1.281433 -4.302552 -0.890617 139.999985
[Rope1_Seg09]
17 121.602913 0.000119 -0.000089 -89.793175 -1.359789 0.847147 121.602913
18 121.602913 0.000119 -0.000089 -89.793175 -1.359789 0.847147 121.602913
[L_mid_hand01]
17 103.859421 1.038730 8.195221 104.645828 -11.341451 -3.472799 104.187431
18 103.859421 1.038730 8.195221 104.791466 -13.822922 -4.141283 104.187431
[L_mid_hand02]
17 105.572853 -4.139662 -10.864139 -136.851318 12.264257 -12.172828 106.211075
18 105.572853 -4.139662 -10.864139 -137.292099 14.014215 -14.102421 106.211075
[L_mid_hand03]
17 104.641464 17.579376 -3.913581 -18.441504 3.536872 14.376384 106.179977
18 104.641464 17.579376 -3.913581 -18.272455 4.345796 16.820013 106.179977
[null_rope02_connect]
17 328.732849 0.000179 -0.000119 -139.745651 -47.116783 -47.939724 328.732849
18 328.732849 0.000179 -0.000119 -140.995117 -44.396725 -45.533356 328.732849
[Rope2_Seg01]
17 -0.000059 0.000142 0.000085 12.024234 -25.576656 -33.436516 0.000176
18 -0.000058 0.000143 0.000081 10.028464 -24.227993 -32.151249 0.000174
[Rope2_Seg02]
17 139.999741 -0.000060 -0.000119 -6.367200 2.488721 6.178437 139.999756
18 139.999741 -0.000060 -0.000119 -5.991391 2.295606 5.550563 139.999756
[Rope2_Seg03]
17 140.000107 0.000030 0.000000 -7.824295 2.323850 8.428532 140.000107
18 140.000107 0.000030 0.000000 -7.690717 2.302946 7.835446 140.000107
[Rope2_Seg04]
17 139.999802 0.000000 -0.000060 -8.580651 0.451399 11.603228 139.999802
18 139.999802 0.000000 -0.000060 -9.118080 0.856006 11.488533 139.999802
[Rope2_Seg05]
17 139.999985 -0.000060 0.000119 -7.653508 -1.962925 13.938185 139.999985
18 139.999985 -0.000060 0.000119 -8.989599 -1.818034 15.481921 139.999985
[Rope2_Seg06]
17 139.999893 -0.000030 -0.000119 -5.908000 3.044651 11.840264 139.999893
18 139.999893 -0.000030 -0.000119 -6.470499 2.785435 12.774539 139.999893
[Rope2_Seg07]
17 139.999893 0.000060 -0.000060 -4.666013 5.136027 8.754663 139.999893
18 139.999893 0.000060 -0.000060 -4.332529 4.268088 8.207647 139.999893
[Rope2_Seg09]
17 121.338966 0.000089 -0.000060 33.793236 -1.359788 -0.847141 121.338966
18 121.338966 0.000089 -0.000060 33.793236 -1.359788 -0.847141 121.338966
[R_mid_hand01]
17 104.680779 11.144459 -10.335981 -46.201900 12.323607 14.293468 105.778534
18 104.680779 11.144459 -10.335981 -45.829590 13.966303 15.923316 105.778534
[R_mid_hand02]
17 104.070427 2.443552 8.231699 75.146904 -14.653768 4.372539 104.424065
18 104.070427 2.443552 8.231699 74.979683 -16.862909 4.983319 104.424065
[R_mid_hand03]
17 106.028137 -11.221827 -5.996406 -165.285202 5.858132 -18.535969 106.788818
18 106.028137 -11.221827 -5.996406 -165.527451 6.433969 -20.763407 106.788818
[spine02]
17 129.756927 0.001550 0.000119 -0.047033 -3.971331 -7.167036 129.756927
18 129.756927 0.001550 0.000119 -0.039239 -3.956247 -7.276366 129.756927
[spine03]
17 78.997726 0.020523 -1.150589 1.913162 -1.646831 18.963020 79.006104
18 79.037041 0.013580 -0.767056 1.923616 -2.114602 20.699158 79.040764
[pelvis]
17 169.435242 0.051022 0.000000 -80.601555 1.128117 -2.167264 169.435257
18 169.435242 0.051022 0.000000 -107.227455 1.934535 -2.277719 169.435257
[null_rope03_connect]
17 -1.257226 -2.466202 137.391083 -178.136383 -38.685684 -80.815712 137.418976
18 -1.257226 -2.466202 137.391083 -175.128494 -9.801676 -82.391212 137.418976
[null_rope04_connect]
17 -1.259640 -2.480268 -137.844437 -178.136383 -38.685684 -80.815712 137.872513
18 -1.259640 -2.480268 -137.844437 -175.128494 -9.801676 -82.391212 137.872513
[Rope3_Seg01]
17 0.000000 0.000000 0.000000 -122.752464 5.676560 -39.361794 0.000000
18 0.000000 0.000000 0.000000 -118.723618 25.238813 -48.937016 0.000000
[Rope3_Seg02]
17 139.999924 -0.000119 0.000060 19.389835 -23.520279 -10.354529 139.999924
18 139.999924 -0.000119 0.000060 9.773917 -26.105907 2.393203 139.999924
[Rope3_Seg03]
17 139.999924 -0.000119 0.000119 27.429937 -18.339230 -5.097662 139.999924
18 139.999924 -0.000119 0.000119 10.853997 -19.191961 1.905078 139.999924
[Rope3_Seg04]
17 139.999924 0.000119 0.000000 31.667309 -14.404074 6.407905 139.999924
18 139.999924 0.000119 0.000000 10.156426 -13.634997 7.548283 139.999924
[Rope3_Seg05]
17 139.999924 -0.000238 0.000060 21.930897 -8.833858 28.148197 139.999924
18 139.999924 -0.000238 0.000060 10.388104 -15.694079 24.121284 139.999924
[Rope3_Seg06]
17 139.999893 -0.000119 -0.000060 5.556127 2.298167 19.254370 139.999893
18 139.999893 -0.000119 -0.000060 3.419286 -6.363332 18.251207 139.999893
[Rope3_Seg07]
17 139.999771 0.000060 -0.000119 1.639732 1.337446 7.807687 139.999771
18 139.999771 0.000060 -0.000119 1.029371 -2.385988 7.534744 139.999771
[Rope3_Seg08]
17 139.999985 -0.000060 0.000000 0.931860 0.819392 4.119315 139.999985
18 139.999985 -0.000060 0.000000 0.637781 -1.188776 4.036777 139.999985
[Rope3_Seg09]
17 90.185997 -0.000179 -0.000060 89.793228 -1.359877 -0.847183 90.185997
18 90.185997 -0.000179 -0.000060 89.793228 -1.359877 -0.847183 90.185997
[R_rear_hand01]
17 103.366196 -6.073594 -10.757982 -156.890808 8.867678 -9.260687 104.101845
18 103.366196 -6.073594 -10.757982 -157.358185 10.054745 -12.115313 104.101845
[R_rear_hand02]
17 100.509819 12.039542 -7.992327 -38.311344 6.310308 10.942962 101.543350
18 100.509819 12.039542 -7.992327 -38.001770 8.202563 13.368614 101.543350
[R_rear_hand03]
17 101.539970 5.215704 5.435467 84.240326 -9.319661 4.797911 101.819031
18 101.539970 5.215704 5.435467 84.177406 -12.362687 5.114737 101.819031
[Rope4_Seg01]
17 -0.000006 -0.000059 -0.000085 59.932369 -38.416306 -119.036140 0.000104
18 -0.000006 -0.000058 -0.000081 47.336483 -49.717018 -95.694298 0.000100
[Rope4_Seg02]
17 139.999985 0.000060 0.000119 11.412891 -29.432405 -1.248134 139.999985
18 139.999985 0.000060 0.000119 4.442106 -26.139536 10.415802 139.999985
[Rope4_Seg03]
17 139.999924 0.000000 -0.000238 11.934833 -18.741468 -3.788965 139.999924
18 139.999924 0.000000 -0.000238 8.751767 -20.581957 3.406652 139.999924
[Rope4_Seg04]
17 139.999985 0.000000 0.000119 51.472248 -17.957157 10.608829 139.999985
18 139.999985 0.000000 0.000119 17.521378 -14.349411 14.310502 139.999985
[Rope4_Seg05]
17 139.999802 -0.000060 -0.000119 41.388309 3.421376 54.479946 139.999802
18 139.999802 -0.000060 -0.000119 25.451036 -10.223760 53.172455 139.999802
[Rope4_Seg06]
17 139.999924 0.000000 0.000060 3.835294 14.882289 16.171640 139.999924
18 139.999924 0.000000 0.000060 3.673836 6.833197 21.777269 139.999924
[Rope4_Seg07]
17 139.999802 0.000000 0.000000 0.304744 4.593638 4.836298 139.999802
18 139.999802 0.000000 0.000000 0.036821 2.119793 6.446130 139.999802
[Rope4_Seg08]
17 139.999924 0.000000 0.000119 -1.505985 2.244023 2.346921 139.999924
18 139.999924 0.000000 0.000119 -1.677366 1.027103 3.123041 139.999924
[Rope4_Seg09]
17 90.185791 0.000060 0.000060 -135.617828 2.228885 0.850567 90.185791
18 90.185791 0.000060 0.000060 -135.617828 2.228885 0.850567 90.185791
[L_rear_hand01]
17 101.696655 -8.392275 -7.654577 -38.541737 -4.340775 171.553604 102.329041
18 101.696655 -8.392275 -7.654577 -38.308765 -6.335756 169.028732 102.329041
[L_rear_hand02]
17 102.726799 -1.568258 5.773216 84.278557 6.160368 175.519302 102.900848
18 102.726799 -1.568258 5.773216 84.234550 9.357868 175.196030 102.900848
[L_rear_hand03]
17 104.552910 9.721220 -10.420293 -156.464783 -7.606923 -173.684799 105.519653
18 104.552910 9.721220 -10.420293 -156.893646 -8.879521 -170.705856 105.519653
